#N struct 1005-scope float x float y float x1 float y1 float c1 float c2 float c3 float c4 array vector-min 1005-scope-element array vector-max 1005-scope-element float curx;
#N struct 1005-scope-element float y;
#N canvas 193 508 1285 712 12;
#X obj 511 121 s 1-record_rcv;
#X obj 248 45 joystick_controller;
#X obj 508 407 r button2;
#X obj 510 92 tgl 19 0 empty empty empty 0 -10 0 12 #fcfcfc #000000 #000000 0 1;
#X obj 635 71 r button1;
#X obj 635 95 tgl 19 0 empty empty empty 0 -10 0 12 #fcfcfc #000000 #000000 0 1;
#X obj 635 119 s 1-on_off_rcv;
#X obj 676 234 r joyX;
#X obj 676 258 / 1024;
#X obj 676 285 s 1-sample_offset_rcv;
#X obj 508 309 r joyY;
#X obj 508 333 / 1024;
#X obj 508 382 s 1-grain_pitch_rcv;
#X obj 509 511 r joyZ;
#X obj 572 673 s 1-offset_random_rcv;
#X obj 509 535 - 128;
#X obj 509 559 moses 0;
#X obj 574 641 / 128;
#X obj 588 618 + 1;
#X obj 508 357 * 0.5;
#X obj 731 401 sel 0 1;
#X msg 804 465 0.7;
#X msg 759 456 0;
#X obj 807 493 s 1-random_pitch_rcv;
#X obj 833 431 s 1-reverse_rcv;
#X obj 833 407 r button9;
#X obj 826 372 s 1-reverse_random_rcv;
#X obj 867 67 r hatSw;
#X floatatom 867 91 5 0 0 0 - - - 0;
#X obj 868 176 / 8;
#X obj 868 200 s 1-grain_size_rcv;
#X obj 868 131 moses 7;
#X obj 507 457 bng 19 250 50 0 empty empty empty 0 -10 0 12 #fcfcfc #000000 #000000;
#X obj 507 481 s 1-play_one_grain_rcv;
#X obj 508 431 sel 1;
#X obj 502 53 r button3;
#X obj 758 681 s 1-sound_select;
#X msg 646 552 sounds/Andreas.wav;
#X msg 658 578 sounds/Andreas2.wav;
#X msg 673 602 sounds/Andreas3.wav;
#X msg 685 628 sounds/Andreas4.wav;
#X msg 811 534 sounds/Caroline.wav;
#X msg 819 556 sounds/Nadia.wav;
#X msg 880 580 sounds/Nadia2.wav;
#X msg 889 622 sounds/Yann.wav;
#X msg 901 653 sounds/Yann_shout.wav;
#X msg 991 601 sounds/Singing_thesis2.wav;
#X obj 732 336 r button3;
#X obj 826 348 r button4;
#X obj 1037 446 sel 1;
#X obj 1035 494 sel 1;
#X obj 1035 544 sel 1;
#X obj 1149 433 sel 1;
#X obj 1137 528 sel 1;
#X obj 1135 364 sel 1;
#X obj 1037 422 r button7;
#X obj 1035 470 r button8;
#X obj 1035 520 r button9;
#X obj 1149 409 r button10;
#X obj 1137 504 r button11;
#X obj 416 677 s 1-pitch_random_rcv;
#X obj 508 601 abs;
#X obj 488 631 / 128;
#X floatatom 488 655 5 0 0 0 - - - 0;
#X obj 1135 340 r button12;
#X obj 662 508 loadbang;
#X obj 684 158 print trigger;
#X obj 1037 147 print;
#X obj 1033 86 loadbang;
#X msg 1033 110 helloooo;
#X obj 108 110 ys.granular_main 1 sounds/Caroline.wav;
#X obj 241 13 joystick_controller_pi;
#X connect 2 0 34 0;
#X connect 3 0 0 0;
#X connect 4 0 5 0;
#X connect 5 0 6 0;
#X connect 5 0 66 0;
#X connect 7 0 8 0;
#X connect 8 0 9 0;
#X connect 10 0 11 0;
#X connect 11 0 19 0;
#X connect 13 0 15 0;
#X connect 15 0 16 0;
#X connect 16 0 61 0;
#X connect 16 1 18 0;
#X connect 17 0 14 0;
#X connect 18 0 17 0;
#X connect 19 0 12 0;
#X connect 20 0 22 0;
#X connect 20 1 21 0;
#X connect 21 0 23 0;
#X connect 22 0 23 0;
#X connect 25 0 24 0;
#X connect 27 0 28 0;
#X connect 28 0 31 0;
#X connect 29 0 30 0;
#X connect 31 0 29 0;
#X connect 32 0 33 0;
#X connect 34 0 32 0;
#X connect 37 0 36 0;
#X connect 38 0 36 0;
#X connect 39 0 36 0;
#X connect 40 0 36 0;
#X connect 41 0 36 0;
#X connect 42 0 36 0;
#X connect 43 0 36 0;
#X connect 44 0 36 0;
#X connect 45 0 36 0;
#X connect 46 0 36 0;
#X connect 47 0 20 0;
#X connect 48 0 26 0;
#X connect 49 0 37 0;
#X connect 50 0 41 0;
#X connect 51 0 40 0;
#X connect 52 0 46 0;
#X connect 53 0 45 0;
#X connect 54 0 44 0;
#X connect 55 0 49 0;
#X connect 56 0 50 0;
#X connect 57 0 51 0;
#X connect 58 0 52 0;
#X connect 59 0 53 0;
#X connect 61 0 62 0;
#X connect 62 0 63 0;
#X connect 63 0 60 0;
#X connect 64 0 54 0;
#X connect 68 0 69 0;
#X connect 69 0 67 0;
