#N canvas 65 25 1004 705 12;
#X obj 99 229 hid;
#X msg 276 189 poll 0;
#X msg 165 188 open joystick;
#X msg 96 181 poll 1;
#X floatatom 129 457 5 0 0 0 - - joyX 0;
#X floatatom 151 489 5 0 0 0 - - joyY 0;
#X floatatom 194 508 5 0 0 0 - - joyZ 0;
#X obj 89 258 route device opened closed value;
#X obj 43 303 print device;
#X obj 143 347 tgl 15 0 empty empty empty 17 7 0 10 #fcfcfc #000000 #000000 0 1;
#X msg 144 304 1;
#X msg 200 304 0;
#X obj 156 384 route 1 9 5;
#X text 76 469 x (48);
#X text 76 491 y (49);
#X text 69 512 Rz (53);
#X floatatom 274 532 5 0 0 0 - - hatSw 0;
#X obj 130 430 route 48 49 53 54 56 57;
#X text 154 534 Hat Switch (57);
#X obj 279 461 print other_usage;
#X text 61 347 open ?;
#X msg 338 187 close;
#X obj 122 154 t b b;
#X obj 151 114 sel 1 0;
#X obj 151 89 tgl 19 0 empty empty empty 0 -10 0 12 #fcfcfc #000000 #000000 0 1;
#X obj 273 144 t b b;
#X obj 383 395 route 1 2 3 4 5 6 7 8 9 10 11 12, f 53;
#X obj 379 421 tgl 19 0 button1 empty empty 0 -10 0 12 #fcfcfc #000000 #000000 0 1;
#X obj 408 422 tgl 19 0 button2 empty empty 0 -10 0 12 #fcfcfc #000000 #000000 0 1;
#X obj 443 422 tgl 19 0 button3 empty empty 0 -10 0 12 #fcfcfc #000000 #000000 0 1;
#X obj 472 423 tgl 19 0 button4 empty empty 0 -10 0 12 #fcfcfc #000000 #000000 0 1;
#X obj 503 424 tgl 19 0 button5 empty empty 0 -10 0 12 #fcfcfc #000000 #000000 0 1;
#X obj 532 425 tgl 19 0 button6 empty empty 0 -10 0 12 #fcfcfc #000000 #000000 0 1;
#X obj 567 420 tgl 19 0 button7 empty empty 0 -10 0 12 #fcfcfc #000000 #000000 0 1;
#X obj 596 421 tgl 19 0 button8 empty empty 0 -10 0 12 #fcfcfc #000000 #000000 0 1;
#X obj 631 421 tgl 19 0 button9 empty empty 0 -10 0 12 #fcfcfc #000000 #000000 0 1;
#X obj 660 422 tgl 19 0 button10 empty empty 0 -10 0 12 #fcfcfc #000000 #000000 0 1;
#X obj 691 423 tgl 19 0 button11 empty empty 0 -10 0 12 #fcfcfc #000000 #000000 0 1;
#X obj 720 424 tgl 19 0 button12 empty empty 0 -10 0 12 #fcfcfc #000000 #000000 0 1;
#X obj 156 33 loadbang;
#X msg 156 57 1;
#X msg 386 79 list joystick;
#X obj 390 50 loadbang;
#X connect 0 0 7 0;
#X connect 1 0 0 0;
#X connect 2 0 0 0;
#X connect 3 0 0 0;
#X connect 7 0 8 0;
#X connect 7 1 10 0;
#X connect 7 2 11 0;
#X connect 7 3 12 0;
#X connect 10 0 9 0;
#X connect 11 0 9 0;
#X connect 12 0 17 0;
#X connect 12 1 26 0;
#X connect 17 0 4 0;
#X connect 17 1 5 0;
#X connect 17 2 6 0;
#X connect 17 5 16 0;
#X connect 17 6 19 0;
#X connect 21 0 0 0;
#X connect 22 0 3 0;
#X connect 22 1 2 0;
#X connect 23 0 22 0;
#X connect 23 1 25 0;
#X connect 24 0 23 0;
#X connect 25 0 21 0;
#X connect 25 1 1 0;
#X connect 26 0 27 0;
#X connect 26 1 28 0;
#X connect 26 2 29 0;
#X connect 26 3 30 0;
#X connect 26 4 31 0;
#X connect 26 5 32 0;
#X connect 26 6 33 0;
#X connect 26 7 34 0;
#X connect 26 8 35 0;
#X connect 26 9 36 0;
#X connect 26 10 37 0;
#X connect 26 11 38 0;
#X connect 39 0 40 0;
#X connect 40 0 24 0;
#X connect 41 0 0 0;
#X connect 42 0 41 0;
