#N canvas 254 133 1004 705 12;
#X obj 99 229 hid;
#X floatatom 129 457 5 0 0 0 - - joyX 0;
#X floatatom 151 489 5 0 0 0 - - joyY 0;
#X floatatom 194 508 5 0 0 0 - - joyZ 0;
#X text 76 469 x (48);
#X text 76 491 y (49);
#X text 69 512 Rz (53);
#X floatatom 274 532 5 0 0 0 - - hatSw 0;
#X text 154 534 Hat Switch (57);
#X obj 500 377 tgl 19 0 button1 empty empty 0 -10 0 12 #fcfcfc #000000 #000000 0 1;
#X obj 529 378 tgl 19 0 button2 empty empty 0 -10 0 12 #fcfcfc #000000 #000000 0 1;
#X obj 564 378 tgl 19 0 button3 empty empty 0 -10 0 12 #fcfcfc #000000 #000000 0 1;
#X obj 593 379 tgl 19 0 button4 empty empty 0 -10 0 12 #fcfcfc #000000 #000000 0 1;
#X obj 624 380 tgl 19 0 button5 empty empty 0 -10 0 12 #fcfcfc #000000 #000000 0 1;
#X obj 653 381 tgl 19 0 button6 empty empty 0 -10 0 12 #fcfcfc #000000 #000000 0 1;
#X obj 688 376 tgl 19 0 button7 empty empty 0 -10 0 12 #fcfcfc #000000 #000000 0 1;
#X obj 717 377 tgl 19 0 button8 empty empty 0 -10 0 12 #fcfcfc #000000 #000000 0 1;
#X obj 752 377 tgl 19 0 button9 empty empty 0 -10 0 12 #fcfcfc #000000 #000000 0 1;
#X obj 781 378 tgl 19 0 button10 empty empty 0 -10 0 12 #fcfcfc #000000 #000000 0 1;
#X obj 812 379 tgl 19 0 button11 empty empty 0 -10 0 12 #fcfcfc #000000 #000000 0 1;
#X obj 841 380 tgl 19 0 button12 empty empty 0 -10 0 12 #fcfcfc #000000 #000000 0 1;
#X obj 183 49 loadbang;
#X obj 156 112 t b b;
#X msg 77 161 1;
#X obj 77 185 tgl 19 0 empty empty empty 0 -10 0 12 #fcfcfc #000000 #000000 0 1;
#X obj 89 258 route abs key;
#X obj 500 315 route btn_0 btn_1 btn_2 btn_3 btn_4 btn_5 btn_6 btn_7 btn_8 btn_9 btn_10 btn_11, f 57;
#X obj 268 307 print;
#X msg 133 148 open 0;
#X obj 37 335 route abs_x abs_y abs_rz abs_hat0y abs_hat0x;
#X obj 221 395 sel -1 0 1;
#X obj 323 399 sel -1 0 1;
#X obj 311 488 send hatSw;
#X msg 246 446 1;
#X msg 281 448 2;
#X msg 316 448 3;
#X msg 348 448 4;
#X msg 387 445 5;
#X msg 426 443 6;
#X connect 0 0 25 0;
#X connect 21 0 22 0;
#X connect 22 0 23 0;
#X connect 22 1 28 0;
#X connect 23 0 24 0;
#X connect 24 0 0 0;
#X connect 25 0 29 0;
#X connect 25 1 26 0;
#X connect 26 0 9 0;
#X connect 26 1 10 0;
#X connect 26 2 11 0;
#X connect 26 3 12 0;
#X connect 26 4 13 0;
#X connect 26 5 14 0;
#X connect 26 6 15 0;
#X connect 26 7 16 0;
#X connect 26 8 17 0;
#X connect 26 9 18 0;
#X connect 26 10 19 0;
#X connect 26 11 20 0;
#X connect 28 0 0 0;
#X connect 29 0 1 0;
#X connect 29 1 2 0;
#X connect 29 2 3 0;
#X connect 29 3 30 0;
#X connect 29 4 31 0;
#X connect 30 0 33 0;
#X connect 30 1 34 0;
#X connect 30 2 35 0;
#X connect 31 0 36 0;
#X connect 31 1 37 0;
#X connect 31 2 38 0;
#X connect 33 0 32 0;
#X connect 34 0 32 0;
#X connect 35 0 32 0;
#X connect 36 0 32 0;
#X connect 37 0 32 0;
#X connect 38 0 32 0;
